PathFileType	4	(X/Y/Z)	c:/Users/goper/Files/vsCode/490R/osim_files/A02/A02_Fast_04.trc
DataRate	CameraRate	NumFrames	NumMarkers	Units                	OrigDataRate	OrigDataStartFrame	OrigNumFrames
250.00	250.00	7	36	mm	250.0	1579	2526
                Frame#	Time	Mobility_markerset:LPSIS			Mobility_markerset:LASIS			Mobility_markerset:LTH1			Mobility_markerset:LTH2			Mobility_markerset:LTH3			Mobility_markerset:LTH4			Mobility_markerset:LLFE			Mobility_markerset:LMFE			Mobility_markerset:LSH1			Mobility_markerset:LSH2			Mobility_markerset:LSH3			Mobility_markerset:LSH4			Mobility_markerset:LLMAL			Mobility_markerset:LMMAL			Mobility_markerset:LCAL			Mobility_markerset:LMTP5			Mobility_markerset:LTOE			Mobility_markerset:LMTP1			Mobility_markerset:RPSIS			Mobility_markerset:RASIS			Mobility_markerset:RTH1			Mobility_markerset:RTH2			Mobility_markerset:RTH3			Mobility_markerset:RTH4			Mobility_markerset:RLFE			Mobility_markerset:RMFE			Mobility_markerset:RSH1			Mobility_markerset:RSH2			Mobility_markerset:RSH3			Mobility_markerset:RSH4			Mobility_markerset:RLMAL			Mobility_markerset:RMMAL			Mobility_markerset:RCAL			Mobility_markerset:RMTP1			Mobility_markerset:RTOE			Mobility_markerset:RMTP5		
		X1	Y1	Z1	X2	Y2	Z2	X3	Y3	Z3	X4	Y4	Z4	X5	Y5	Z5	X6	Y6	Z6	X7	Y7	Z7	X8	Y8	Z8	X9	Y9	Z9	X10	Y10	Z10	X11	Y11	Z11	X12	Y12	Z12	X13	Y13	Z13	X14	Y14	Z14	X15	Y15	Z15	X16	Y16	Z16	X17	Y17	Z17	X18	Y18	Z18	X19	Y19	Z19	X20	Y20	Z20	X21	Y21	Z21	X22	Y22	Z22	X23	Y23	Z23	X24	Y24	Z24	X25	Y25	Z25	X26	Y26	Z26	X27	Y27	Z27	X28	Y28	Z28	X29	Y29	Z29	X30	Y30	Z30	X31	Y31	Z31	X32	Y32	Z32	X33	Y33	Z33	X34	Y34	Z34	X35	Y35	Z35	X36	Y36	Z36

1579	6.31200	-2467.84375	981.26587	325.23569	-2611.33838	944.70233	399.54404	-2573.59546	685.38336	441.34265	-2598.33691	644.62946	436.91388	-2628.29858	710.37231	455.93002	-2643.84570	668.11981	447.37787	-2700.22437	501.38538	408.75406	-2725.32007	480.56982	290.20508	-2617.12964	459.40063	405.89828	-2592.87793	415.49301	404.96359	-2665.13940	424.94226	411.44907	-2638.79541	388.92819	416.38382	-2513.23291	171.90804	373.33398	-2530.90674	177.26016	290.98035	-2444.38599	181.69205	326.64908	-2571.94849	73.88421	379.74744	-2629.07788	81.38972	317.52023	-2586.13574	75.98370	269.26910	-2475.48193	994.17346	223.54102	0.00000	0.00000	0.00000	-2576.31299	638.56018	139.99933	-2582.62329	594.05322	141.46062	-2637.87622	638.27094	140.76167	-2633.62622	595.47900	139.44328	-2596.39331	481.17331	131.93001	-2620.21167	483.79111	264.34238	-2576.42798	296.51526	154.95096	-2580.83105	251.50882	164.53004	-2637.28198	295.34882	149.91078	-2632.99194	248.75127	157.41512	-2575.68726	91.97632	166.02353	-2589.22192	96.38231	249.67662	-2525.94287	73.62381	211.50192	-2714.16333	60.31100	239.62637	-2734.79907	72.55341	204.37532	-2703.40649	58.13205	148.34024
1580	6.31600	-2472.98218	981.35352	325.54889	-2616.49243	944.79242	399.66534	-2580.25513	685.31018	440.41464	-2605.06177	645.19739	436.83133	-2634.46313	711.01154	455.59619	-2649.79688	668.72809	447.40973	-2707.70093	502.37766	407.85663	-2733.08105	482.02472	289.53094	-2625.28857	459.69897	405.15878	-2601.95483	414.23248	403.84219	-2673.93286	425.40405	410.68286	-2648.39478	388.86914	415.63666	-2528.45459	168.48260	372.79166	-2546.37842	173.86278	290.16547	-2459.29834	175.74973	325.47018	-2589.88086	72.67310	380.25421	-2647.14233	81.40884	318.33160	-2604.76489	74.17632	269.89075	-2480.68384	994.44293	223.88867	0.00000	0.00000	0.00000	-2579.99023	638.31024	140.46017	-2585.02515	594.68207	140.72752	-2641.15894	638.09772	140.68596	-2636.70215	595.35767	139.39799	-2598.89233	481.30951	131.89825	-2622.78467	483.80487	264.21738	-2577.64404	296.68359	154.90036	-2582.24756	251.64857	164.78313	-2638.75049	295.27777	149.89717	-2634.06445	248.73390	157.33209	-2575.83740	92.11706	166.12361	-2590.42700	96.47739	250.17087	-2525.57104	74.37801	211.00653	-2714.34204	60.07045	239.66684	-2734.95020	72.27789	204.37575	-2703.54639	57.98374	148.36127
1581	6.32000	-2477.48706	981.15491	325.36932	-2621.24390	944.90887	399.40588	-2586.54663	685.53979	440.39285	-2611.64038	645.62030	436.82101	-2640.60596	711.73962	455.29968	-2656.68579	669.63647	446.70755	-2715.03271	503.33807	407.02966	-2740.72974	483.38794	288.78314	0.00000	0.00000	0.00000	-2610.83838	412.78687	402.67401	-2682.45288	425.68814	409.80161	-2657.88965	388.66791	414.84384	-2543.43628	164.95605	371.88083	-2562.28760	170.47342	289.53192	-2474.44189	169.73834	324.34879	-2607.94849	71.58092	380.74631	-2665.22803	81.53342	319.15695	-2623.58423	72.58186	270.56973	-2485.02002	994.40118	223.71791	0.00000	0.00000	0.00000	-2583.10547	638.53705	140.44591	-2588.33228	594.55365	141.13533	-2644.48804	637.97302	140.56651	-2639.96216	595.37714	139.30101	-2601.42212	481.44022	131.80551	-2625.58325	484.02234	263.65909	-2579.95288	297.59982	155.61067	-2583.77905	251.81657	164.49358	-2640.15356	295.19876	149.84242	-2635.26831	248.66022	157.36737	-2576.07983	92.30672	166.22180	-2589.15381	95.88972	249.72133	-2526.24341	74.00620	211.59636	-2714.44702	59.79145	239.67639	-2734.79321	71.73946	204.49673	-2703.64502	57.80552	148.35669
1582	6.32400	-2482.97754	980.92133	325.71814	-2626.43091	944.89917	399.48401	-2592.77344	685.70453	440.24808	-2618.17383	645.98419	436.64944	-2646.71265	712.28955	455.00845	-2663.06030	670.31494	446.31454	-2721.87598	504.16425	405.59836	-2748.11255	484.66669	288.06857	-2637.89868	452.26837	396.32852	-2619.83862	411.24506	401.70538	-2691.08862	425.92319	409.08493	-2667.37817	388.24356	414.08612	-2558.70752	161.54387	371.26532	-2577.55200	167.10086	289.00449	-2489.72485	163.86542	323.20944	-2626.06616	70.59456	381.22748	-2683.49902	81.83721	319.97641	-2642.46216	71.09447	271.15805	-2489.71826	994.35107	223.82668	0.00000	0.00000	0.00000	-2586.73242	638.84644	140.23221	-2591.49658	594.76355	141.12743	-2647.89551	637.86224	140.43860	-2643.05933	595.29175	139.16606	-2603.78711	481.52545	131.77586	-2626.45410	483.03329	263.86627	-2581.44995	297.70123	154.87505	0.00000	0.00000	0.00000	-2641.51343	295.04782	149.80887	-2636.34448	248.58276	157.33089	-2576.22559	92.39523	166.32417	-2589.34766	95.96728	249.72853	-2526.39258	74.22518	211.69606	-2714.54443	59.52060	239.67917	-2734.95312	71.46803	204.48143	-2703.77222	57.64673	148.36156
1583	6.32800	-2487.21143	980.88696	325.45786	-2633.49219	945.99927	398.57681	-2599.04932	685.87842	440.20923	0.00000	0.00000	0.00000	-2652.89722	712.84558	454.70306	-2668.79028	670.57190	446.39868	-2729.02417	504.98434	404.77237	-2755.35034	485.86700	287.26361	-2645.75806	450.93735	395.33383	-2628.77905	409.44794	400.72763	-2699.46045	426.04376	408.23053	-2676.80542	387.75513	413.26059	-2574.35815	158.19977	370.83743	-2593.43994	163.82042	288.26288	-2505.24463	158.00446	322.15179	-2644.18433	69.69913	381.67429	-2701.58032	82.30174	320.72205	-2661.32202	69.77268	271.74078	-2494.54126	994.13892	223.91261	0.00000	0.00000	0.00000	-2590.18408	639.11792	140.09851	-2594.74487	594.96509	141.22917	-2651.29761	637.71973	140.36031	-2646.15356	595.10339	139.04813	-2606.40308	481.71048	131.70515	-2629.77100	483.54974	263.24826	0.00000	0.00000	0.00000	0.00000	0.00000	0.00000	-2642.97900	294.98834	149.76189	-2637.54028	248.56528	157.28836	-2576.41968	92.56513	166.39629	-2589.46631	96.00681	249.69725	-2526.56030	74.39221	211.78654	-2714.09937	58.95076	239.48428	-2735.09741	71.20629	204.48152	-2703.89575	57.51498	148.37444
1584	6.33200	-2492.76611	980.51080	326.01276	-2636.30542	944.74213	399.46439	-2605.28784	685.99323	440.11172	-2630.78687	646.45526	436.05478	-2658.97925	713.29755	454.40948	-2675.59766	671.37915	445.60498	-2736.05640	505.69760	403.85947	-2762.43335	486.99274	286.51874	-2653.62305	449.48883	394.44937	-2637.55933	407.60715	399.76260	-2707.86279	425.86688	407.41119	-2686.25098	387.15912	412.43942	-2589.83813	154.78139	369.98923	-2609.00635	160.61668	287.74420	-2520.80811	152.23224	320.88141	-2662.43286	69.01964	382.09546	-2719.81323	82.91309	321.37213	-2680.22656	68.62924	272.30231	-2498.72314	993.86926	224.10696	0.00000	0.00000	0.00000	-2593.64966	639.33838	140.01880	-2597.85913	594.95282	140.78349	-2654.72900	637.55859	140.19797	-2649.37964	595.07172	138.95573	-2608.86987	481.81339	131.62108	-2632.92847	483.75925	263.45154	-2584.30786	298.18402	155.01613	-2587.13770	252.50859	164.48204	-2644.38647	294.88080	149.72505	-2638.72778	248.47404	157.29521	-2576.58154	92.70758	166.44803	-2589.65625	96.09875	249.67970	-2526.75049	74.59920	211.86070	-2714.71973	59.06503	239.70288	-2735.21362	70.95033	204.47379	-2704.02710	57.36396	148.38110
1585	6.33600	-2497.02661	980.34442	325.81024	-2641.17065	944.63269	399.20197	-2611.12427	686.05670	439.70673	-2637.28418	646.70007	436.03973	-2664.96338	713.58710	454.15720	-2681.84448	671.87085	445.23074	-2743.02148	506.32080	402.92648	-2769.39331	488.01215	285.70020	-2661.49268	447.91400	393.80334	-2646.77197	405.49265	399.12479	-2716.43774	425.84842	406.63181	-2696.26318	386.50232	409.93268	-2605.57373	151.54729	369.53421	-2624.93262	157.54597	287.06494	-2536.59082	146.68146	319.65872	-2680.17188	68.29152	382.48260	-2738.05371	83.82543	322.00693	-2699.25439	67.76169	272.80612	-2502.96802	993.98224	223.82523	0.00000	0.00000	0.00000	-2596.88818	639.44379	140.05312	-2600.58887	595.33087	140.18631	-2658.22559	637.42560	140.08435	-2652.48755	594.87366	138.83444	-2611.34180	481.90958	131.58008	-2634.70459	483.83521	264.72266	-2585.74536	298.37628	155.09778	-2588.30127	252.88480	164.47183	-2645.78076	294.80850	149.70363	-2639.84277	248.43634	157.26413	-2576.71191	92.83810	166.51062	-2590.71533	96.68164	249.71155	-2526.86719	74.74552	211.88338	-2714.83398	58.87770	239.68950	-2735.35010	70.65824	204.48836	-2704.14966	57.24512	148.40685
